<svg xmlns="http://www.w3.org/2000/svg" xmlns:xlink="http://www.w3.org/1999/xlink" width="500" zoomAndPan="magnify" viewBox="0 0 375 374.999991" height="500" preserveAspectRatio="xMidYMid meet" version="1.0"><defs><clipPath id="9db769e402"><path d="M 72 72 L 303 72 L 303 302.902344 L 72 302.902344 Z M 72 72 " clip-rule="nonzero"/></clipPath></defs><g clip-path="url(#9db769e402)"><path fill="#ffffff" d="M 298.46875 226.378906 C 296.042969 226.378906 294.074219 224.410156 294.074219 221.988281 L 294.074219 87.328125 L 219.507812 161.84375 C 217.789062 163.558594 215.011719 163.558594 213.292969 161.84375 C 211.578125 160.128906 211.578125 157.351562 213.292969 155.636719 L 295.363281 73.625 C 296.617188 72.371094 298.507812 71.996094 300.152344 72.675781 C 301.789062 73.355469 302.863281 74.953125 302.863281 76.730469 L 302.863281 221.988281 C 302.863281 224.410156 300.894531 226.378906 298.46875 226.378906 Z M 76.527344 302.902344 C 74.101562 302.902344 72.136719 300.9375 72.136719 298.511719 L 72.136719 145.464844 C 72.136719 143.691406 73.207031 142.085938 74.847656 141.410156 C 76.488281 140.730469 78.378906 141.105469 79.636719 142.359375 L 156.214844 218.886719 C 157.929688 220.597656 157.929688 223.378906 156.214844 225.089844 C 154.496094 226.808594 151.714844 226.808594 150 225.089844 L 80.921875 156.0625 L 80.921875 298.511719 C 80.921875 300.9375 78.953125 302.902344 76.527344 302.902344 Z M 298.46875 302.902344 C 297.34375 302.902344 296.222656 302.472656 295.363281 301.617188 L 73.421875 79.832031 C 71.707031 78.121094 71.707031 75.339844 73.421875 73.625 C 75.140625 71.910156 77.917969 71.910156 79.636719 73.625 L 301.574219 295.410156 C 303.289062 297.121094 303.289062 299.902344 301.574219 301.617188 C 300.714844 302.472656 299.59375 302.902344 298.46875 302.902344 " fill-opacity="1" fill-rule="nonzero"/></g></svg>